<?xml version="1.0" encoding="utf-8"?>
<!-- Generator: Adobe Illustrator 17.0.2, SVG Export Plug-In . SVG Version: 6.00 Build 0)  -->
<!DOCTYPE svg PUBLIC "-//W3C//DTD SVG 1.1//EN" "http://www.w3.org/Graphics/SVG/1.1/DTD/svg11.dtd">
<svg version="1.1" xmlns="http://www.w3.org/2000/svg" xmlns:xlink="http://www.w3.org/1999/xlink" x="0px" y="0px" width="135px"
	 height="40px" viewBox="0 0 135 40" enable-background="new 0 0 135 40" xml:space="preserve">
<g id="background">
	<path fill="#A6A6A6" d="M130.197,40H4.729C2.122,40,0,37.872,0,35.267V4.726C0,2.12,2.122,0,4.729,0h125.468
		C132.803,0,135,2.12,135,4.726v30.541C135,37.872,132.803,40,130.197,40L130.197,40z"/>
	<path d="M134.032,35.268c0,2.116-1.714,3.83-3.834,3.83H4.729c-2.119,0-3.839-1.714-3.839-3.83V4.725
		c0-2.115,1.72-3.835,3.839-3.835h125.468c2.121,0,3.834,1.72,3.834,3.835L134.032,35.268L134.032,35.268z"/>
</g>
<g id="Layer_2">
	<g>
		<rect x="44.452" y="14.786" fill="#FFFFFF" width="4.525" height="17.534"/>
		<path fill="#FFFFFF" d="M46.714,12.382c-1.273,0-2.404-1.131-2.404-2.404s1.131-2.404,2.404-2.404s2.404,1.131,2.404,2.404
			C49.118,11.251,47.987,12.382,46.714,12.382z"/>
		<path fill="#FFFFFF" d="M64.248,11.251L64.248,11.251c-0.99-0.141-2.121-0.283-3.111,0c-2.404,0.707-4.101,2.828-4.808,5.939
			c-0.424,2.262-0.283,4.808,0.283,6.787c0.99,3.111,3.252,4.949,6.08,4.808c2.687,0,4.949-1.697,6.08-4.808
			c0.707-1.98,0.848-4.525,0.283-6.787C68.348,14.079,66.51,11.816,64.248,11.251z M67.641,31.33
			c-1.131,0.566-2.121,0.848-3.818,0.99c-0.848,0.141-1.555,0-2.404,0c-1.697-0.141-2.687-0.424-3.818-0.99
			c-3.959-1.838-6.222-5.939-6.222-11.171s2.262-9.474,6.222-11.453c1.555-0.707,3.111-1.131,4.949-1.131s3.394,0.424,4.949,1.131
			c3.959,1.98,6.222,6.222,6.222,11.453C73.863,25.391,71.601,29.492,67.641,31.33z"/>
		<path fill="#FFFFFF" d="M89.983,28.078c-1.131,2.404-3.535,3.959-6.929,4.242c-0.707,0.141-2.262,0.141-2.687,0l0,0
			c-1.98-0.283-3.818-0.566-5.373-1.414l0.99-3.535c2.545,0.848,6.08,1.98,8.484,0.99c1.273-0.707,1.98-1.838,1.697-3.252
			c-0.283-1.555-1.273-2.404-4.242-3.535c-3.252-1.273-5.232-2.687-6.08-4.666c-0.424-0.99-0.566-2.262-0.283-3.252
			c0.424-2.969,2.828-5.09,6.363-5.797c0.99-0.141,3.252-0.141,4.383,0C87.862,8.14,89.7,8.706,89.7,8.989
			c0,0.141-0.99,3.394-0.99,3.394c-1.555-0.566-3.252-0.99-4.808-1.131c-2.121,0-4.383,1.273-3.959,3.394
			c0.283,1.414,1.131,1.98,4.383,3.394c2.404,0.99,3.535,1.697,4.525,2.687c1.414,1.414,1.838,2.969,1.838,4.525
			C90.69,26.381,90.548,26.946,89.983,28.078z"/>
	</g>
</g>
</svg>
